<svg width="104.000000" height="92.000000" viewBox="0 0 104 92" fill="none" xmlns="http://www.w3.org/2000/svg" xmlns:xlink="http://www.w3.org/1999/xlink">
	<desc>
			Created with Pixso.
	</desc>
	<defs>
		<clipPath id="clip1_3683">
			<rect id="icon.svg - 2024-03-21T181344.247 1" width="92.000000" height="92.000000" fill="white" fill-opacity="0"/>
		</clipPath>
	</defs>
	<circle id="Ellipse 5" cx="74.000000" cy="38.000000" r="30.000000" fill="#FBCD21" fill-opacity="0.200000"/>
	<rect id="icon.svg - 2024-03-21T181344.247 1" width="92.000000" height="92.000000" fill="#FFFFFF" fill-opacity="0"/>
	<g clip-path="url(#clip1_3683)">
		<mask id="mask1_3687" mask-type="alpha" maskUnits="userSpaceOnUse" x="0.000000" y="0.000000" width="92.000000" height="92.000000">
			<path id="path3468" d="M0 0L92 0L92 92L0 92L0 0Z" fill="#000000" fill-opacity="1.000000" fill-rule="nonzero"/>
			<path id="path3468" d="M92 0L0 0L0 92L92 92L92 0ZM89.5 89.5L2.5 89.5L2.5 2.5L89.5 2.5L89.5 89.5Z" fill="#030519" fill-opacity="1.000000" fill-rule="evenodd"/>
		</mask>
		<g mask="url(#mask1_3687)">
			<path id="path3474" d="M6.2 69.18L3.44 69.18C2.28 69.18 1.34 68.24 1.34 67.08L1.34 61.59C1.34 60.43 2.28 59.5 3.44 59.5L63.78 " stroke="#030519" stroke-opacity="1.000000" stroke-width="2.500000" stroke-linejoin="round" stroke-linecap="round"/>
			<path id="path3478" d="M13.32 52.51L9.78 59.5L37.02 59.5L33.48 52.51L13.32 52.51Z" stroke="#030519" stroke-opacity="1.000000" stroke-width="2.500000" stroke-linejoin="round"/>
			<path id="path3482" d="M44.61 27.36L44.61 " stroke="#030519" stroke-opacity="1.000000" stroke-width="2.500000" stroke-linejoin="round" stroke-linecap="round"/>
			<path id="path3486" d="M89.16 63.73L89.16 45.53L71.09 42.66L69.18 " stroke="#030519" stroke-opacity="1.000000" stroke-width="2.500000" stroke-linejoin="round" stroke-linecap="round"/>
			<path id="path3490" d="M61.82 27.36L76.64 27.36C76.23 24.55 73.81 22.46 70.97 22.46L60.27 22.46L59.95 21.45C59.36 19.56 57.61 18.28 55.63 18.28L44.61 18.28L44.61 22.46L44.61 27.36L52.26 " stroke="#030519" stroke-opacity="1.000000" stroke-width="2.500000" stroke-linejoin="round" stroke-linecap="round"/>
			<path id="path3494" d="M72.04 55.16C72.73 55.06 73.44 55 74.16 55C80.06 55 85.14 58.61 87.3 " stroke="#030519" stroke-opacity="1.000000" stroke-width="2.500000" stroke-linejoin="round" stroke-linecap="round"/>
			<path id="path3498" d="M59.9 69.18C59.93 63.98 62.76 59.43 66.96 " stroke="#030519" stroke-opacity="1.000000" stroke-width="2.500000" stroke-linejoin="round" stroke-linecap="round"/>
			<path id="path3502" d="M34.9 28.28L34.9 16L39.32 12.96L39.32 " stroke="#030519" stroke-opacity="1.000000" stroke-width="2.500000" stroke-linejoin="round" stroke-linecap="round"/>
			<path id="path3506" d="M33.2 37.74L33.2 46.26C33.2 47.57 34.25 48.62 35.56 48.62L38.66 48.62C39.96 48.62 41.02 47.57 41.02 46.26L41.02 30.55C41.02 29.25 39.96 28.19 38.66 28.19L35.56 28.19C34.25 28.19 33.2 29.25 33.2 30.55L33.2 " stroke="#030519" stroke-opacity="1.000000" stroke-width="2.500000" stroke-linejoin="round" stroke-linecap="round"/>
			<path id="path3510" d="M82.21 63.73L84.44 63.73L89.17 63.73C89.98 63.73 90.65 64.39 90.65 65.21L90.65 72.05C90.65 72.86 89.98 73.53 89.17 73.53L82.95 " stroke="#030519" stroke-opacity="1.000000" stroke-width="2.500000" stroke-linejoin="round" stroke-linecap="round"/>
			<path id="path3514" d="M15.97 59.5C10.57 59.5 6.2 63.87 6.2 69.27C6.2 74.66 10.57 79.03 15.97 79.03C21.36 79.03 25.74 74.66 25.74 69.27C25.74 63.87 21.36 59.5 15.97 59.5Z" stroke="#030519" stroke-opacity="1.000000" stroke-width="2.500000" stroke-linejoin="round"/>
			<path id="path3518" d="M15.97 64.66C13.42 64.66 11.36 66.72 11.36 69.27C11.36 71.81 13.42 73.87 15.97 73.87C18.52 73.87 20.58 71.81 20.58 69.27C20.58 66.72 18.52 64.66 15.97 64.66Z" stroke="#030519" stroke-opacity="1.000000" stroke-width="2.500000" stroke-linejoin="round"/>
			<path id="path3522" d="M35.51 59.5C30.11 59.5 25.74 63.87 25.74 69.27C25.74 74.66 30.11 79.03 35.51 79.03C40.9 79.03 45.28 74.66 45.28 69.27C45.28 63.87 40.9 59.5 35.51 59.5Z" stroke="#030519" stroke-opacity="1.000000" stroke-width="2.500000" stroke-linejoin="round"/>
			<path id="path3526" d="M35.51 64.66C32.96 64.66 30.9 66.72 30.9 69.27C30.9 71.81 32.96 73.87 35.51 73.87C38.05 73.87 40.12 71.81 40.12 69.27C40.12 66.72 38.05 64.66 35.51 64.66Z" stroke="#030519" stroke-opacity="1.000000" stroke-width="2.500000" stroke-linejoin="round"/>
			<path id="path3530" d="M74.16 59.5C68.77 59.5 64.39 63.87 64.39 69.27C64.39 74.66 68.77 79.03 74.16 79.03C79.56 79.03 83.93 74.66 83.93 69.27C83.93 63.87 79.56 59.5 74.16 59.5Z" stroke="#030519" stroke-opacity="1.000000" stroke-width="2.500000" stroke-linejoin="round"/>
			<path id="path3534" d="M74.16 64.66C71.62 64.66 69.55 66.72 69.55 69.27C69.55 71.81 71.62 73.87 74.16 73.87C76.71 73.87 78.77 71.81 78.77 69.27C78.77 66.72 76.71 64.66 74.16 64.66Z" stroke="#030519" stroke-opacity="1.000000" stroke-width="2.500000" stroke-linejoin="round"/>
			<path id="path3538" d="M84.17 44.73L84.17 " stroke="#030519" stroke-opacity="1.000000" stroke-width="2.500000" stroke-linejoin="round" stroke-linecap="round"/>
			<path id="path3542" d="M65.89 42.24L64.81 31.48L49.75 31.48L49.75 42.24L65.89 42.24Z" stroke="#030519" stroke-opacity="1.000000" stroke-width="2.500000" stroke-linejoin="round"/>
			<path id="path3546" d="M54.05 31.48L54.05 " stroke="#030519" stroke-opacity="1.000000" stroke-width="2.500000" stroke-linejoin="round" stroke-linecap="round"/>
			<path id="path3550" d="M75.72 51.48C75.72 53.88 77.67 55.82 80.07 55.82L80.07 47.14C77.67 47.14 75.72 49.08 75.72 51.48Z" stroke="#030519" stroke-opacity="1.000000" stroke-width="2.500000" stroke-linejoin="round"/>
			<path id="path3554" d="M45.28 69.18L64.39 " stroke="#030519" stroke-opacity="1.000000" stroke-width="2.500000" stroke-linejoin="round" stroke-linecap="round"/>
			<path id="path3558" d="M41.02 33.7L44.61 " stroke="#030519" stroke-opacity="1.000000" stroke-width="2.500000" stroke-linejoin="round" stroke-linecap="round"/>
			<path id="path3562" d="M41.02 43.5L44.61 " stroke="#030519" stroke-opacity="1.000000" stroke-width="2.500000" stroke-linejoin="round" stroke-linecap="round"/>
			<path id="path3566" d="M49.75 46.54L49.75 " stroke="#030519" stroke-opacity="1.000000" stroke-width="2.500000" stroke-linejoin="round" stroke-linecap="round"/>
		</g>
	</g>
</svg>
