<svg width="105.000000" height="92.000000" viewBox="0 0 105 92" fill="none" xmlns="http://www.w3.org/2000/svg" xmlns:xlink="http://www.w3.org/1999/xlink">
	<desc>
			Created with Pixso.
	</desc>
	<defs>
		<clipPath id="clip1_3546">
			<rect id="icon.svg - 2024-03-21T181200.844 1" width="92.000000" height="92.000000" fill="white" fill-opacity="0"/>
		</clipPath>
	</defs>
	<circle id="Ellipse 5" cx="74.000000" cy="38.000000" r="30.000000" fill="#FBCD21" fill-opacity="0.200000"/>
	<rect id="icon.svg - 2024-03-21T181200.844 1" width="92.000000" height="92.000000" fill="#FFFFFF" fill-opacity="0"/>
	<g clip-path="url(#clip1_3546)">
		<path id="Vector" d="M17.2 61.93L17.19 61.93C16.44 61.93 15.85 62.54 15.85 63.28C15.85 64.02 16.46 64.63 17.2 64.63C17.95 64.63 18.55 64.02 18.55 63.28C18.55 62.54 17.95 61.93 17.2 61.93Z" fill="#000000" fill-opacity="1.000000" fill-rule="nonzero"/>
		<path id="Vector" d="M28.72 61.93L28.71 61.93C27.97 61.93 27.37 62.54 27.37 63.28C27.37 64.02 27.98 64.63 28.72 64.63C29.47 64.63 30.07 64.02 30.07 63.28C30.07 62.54 29.47 61.93 28.72 61.93Z" fill="#000000" fill-opacity="1.000000" fill-rule="nonzero"/>
		<path id="Vector" d="M76.26 61.93L76.24 61.93C75.5 61.93 74.9 62.54 74.9 63.28C74.9 64.02 75.51 64.63 76.26 64.63C77 64.63 77.61 64.02 77.61 63.28C77.61 62.54 77 61.93 76.26 61.93Z" fill="#000000" fill-opacity="1.000000" fill-rule="nonzero"/>
		<path id="Vector" d="M90.76 45.64L88.94 43.83L85.29 32.88C85.84 32.7 86.23 32.19 86.23 31.59C86.23 30.85 85.63 30.24 84.89 30.24L71.83 30.24L71.83 24.39C71.83 22.85 70.58 21.6 69.04 21.6L2.78 21.6C1.25 21.6 0 22.85 0 24.39L0 56.08C0 57.62 1.25 58.87 2.78 58.87L4.32 58.87L4.32 61.84C4.32 63.38 5.57 64.63 7.1 64.63L10.21 64.63C10.84 67.9 13.73 70.39 17.19 70.39C19.56 70.39 21.66 69.22 22.95 67.44C24.24 69.22 26.34 70.39 28.71 70.39C32.17 70.39 35.06 67.9 35.69 64.63L69.26 64.63C69.9 67.9 72.78 70.39 76.24 70.39C80.16 70.39 83.35 67.2 83.35 63.28C83.35 63.25 83.35 63.22 83.35 63.19L89.21 63.19C90.74 63.19 92 61.94 92 60.4L92 48.63C92 47.5 91.56 46.44 90.76 45.64ZM10.21 61.93L7.1 61.93C7.05 61.93 7.01 61.89 7.01 61.84L7.01 58.87L11.62 58.87C10.92 59.74 10.43 60.79 10.21 61.93ZM17.19 67.69C14.75 67.69 12.77 65.71 12.77 63.28C12.77 60.86 14.74 58.88 17.16 58.87L17.21 58.87C19.64 58.88 21.6 60.86 21.6 63.28C21.6 65.71 19.62 67.69 17.19 67.69ZM28.71 67.69C26.28 67.69 24.3 65.71 24.3 63.28C24.3 60.86 26.26 58.88 28.68 58.87L28.74 58.87C31.16 58.88 33.12 60.86 33.12 63.28C33.12 65.71 31.14 67.69 28.71 67.69ZM69.26 61.93L35.69 61.93C35.47 60.79 34.98 59.74 34.28 58.87L60.4 58.87C61.14 58.87 61.75 58.26 61.75 57.52C61.75 56.77 61.14 56.17 60.4 56.17L2.78 56.17C2.73 56.17 2.69 56.13 2.69 56.08L2.69 24.39C2.69 24.34 2.73 24.3 2.78 24.3L69.04 24.3C69.09 24.3 69.13 24.34 69.13 24.39L69.13 56.17L66.16 56.17C65.42 56.17 64.81 56.77 64.81 57.52C64.81 58.26 65.42 58.87 66.16 58.87L70.68 58.87C69.98 59.74 69.48 60.79 69.26 61.93ZM86.38 44.65L77.68 44.65C77.63 44.65 77.59 44.61 77.59 44.55L77.59 38.7L84.39 38.7L86.38 44.65ZM76.24 67.69C73.81 67.69 71.83 65.71 71.83 63.28C71.83 60.86 73.8 58.88 76.22 58.87L76.24 58.87C76.25 58.87 76.25 58.87 76.25 58.87C78.68 58.87 80.66 60.85 80.66 63.28C80.66 65.71 78.68 67.69 76.24 67.69ZM89.3 60.4C89.3 60.45 89.26 60.49 89.21 60.49L82.78 60.49C81.7 57.95 79.17 56.17 76.24 56.17C76.23 56.17 76.23 56.17 76.22 56.17L71.83 56.17L71.83 33.03L71.83 33.03C71.83 32.98 71.87 32.94 71.92 32.94L82.47 32.94L83.5 36L76.24 36C75.5 36 74.9 36.61 74.9 37.35L74.9 44.55C74.9 46.09 76.15 47.34 77.68 47.34L88.65 47.34L88.85 47.54C89.14 47.83 89.3 48.22 89.3 48.63L89.3 51.85L87.77 51.85C87.02 51.85 86.42 52.45 86.42 53.2C86.42 53.94 87.02 54.55 87.77 54.55L89.3 54.55L89.3 60.4Z" fill="#000000" fill-opacity="1.000000" fill-rule="nonzero"/>
		<path id="Vector" d="M64.72 50.41L7.1 50.41C6.36 50.41 5.76 51.01 5.76 51.76C5.76 52.5 6.36 53.1 7.1 53.1L64.72 53.1C65.46 53.1 66.07 52.5 66.07 51.76C66.07 51.01 65.46 50.41 64.72 50.41Z" fill="#000000" fill-opacity="1.000000" fill-rule="nonzero"/>
	</g>
</svg>
