<svg width="104.000000" height="92.000000" viewBox="0 0 104 92" fill="none" xmlns="http://www.w3.org/2000/svg" xmlns:xlink="http://www.w3.org/1999/xlink">
	<desc>
			Created with Pixso.
	</desc>
	<defs>
		<clipPath id="clip1_3483">
			<rect id="icon.svg - 2024-03-21T181028.612 1" width="92.000000" height="92.000000" fill="white" fill-opacity="0"/>
		</clipPath>
	</defs>
	<circle id="Ellipse 5" cx="74.000000" cy="38.000000" r="30.000000" fill="#FBCD21" fill-opacity="0.200000"/>
	<rect id="icon.svg - 2024-03-21T181028.612 1" width="92.000000" height="92.000000" fill="#FFFFFF" fill-opacity="0"/>
	<g clip-path="url(#clip1_3483)">
		<path id="XMLID_3173_" d="M74.98 66.8C69.66 66.8 65.33 62.47 65.33 57.15C65.33 52.59 68.56 48.6 73.04 47.7L73.4 49.46C69.77 50.2 67.13 53.45 67.13 57.17C67.13 61.5 70.65 65.02 74.98 65.02C79.31 65.02 82.83 61.5 82.83 57.17C82.83 53.47 80.21 50.24 76.58 49.48L76.94 47.72C81.39 48.65 84.61 52.63 84.61 57.17C84.63 62.47 80.3 66.8 74.98 66.8Z" fill="#030519" fill-opacity="1.000000" fill-rule="nonzero"/>
		<path id="XMLID_3173_" d="M65.33 57.15C65.33 52.59 68.56 48.6 73.04 47.7L73.4 49.46C69.77 50.2 67.13 53.45 67.13 57.17C67.13 61.5 70.65 65.02 74.98 65.02C79.31 65.02 82.83 61.5 82.83 57.17C82.83 53.47 80.21 50.24 76.58 49.48L76.94 47.72C81.39 48.65 84.61 52.63 84.61 57.17C84.63 62.47 80.3 66.8 74.98 66.8C69.66 66.8 65.33 62.47 65.33 57.15Z" stroke="#030519" stroke-opacity="1.000000" stroke-width="0.500000"/>
		<path id="XMLID_3170_" d="M16.72 66.8C11.41 66.8 7.07 62.47 7.07 57.15C7.07 51.83 11.41 47.5 16.72 47.5C22.04 47.5 26.37 51.83 26.37 57.15C26.37 62.47 22.04 66.8 16.72 66.8ZM16.72 49.28C12.39 49.28 8.87 52.81 8.87 57.14C8.87 61.47 12.39 64.99 16.72 64.99C21.05 64.99 24.58 61.47 24.58 57.14C24.58 52.81 21.05 49.28 16.72 49.28Z" fill="#030519" fill-opacity="1.000000" fill-rule="nonzero"/>
		<path id="XMLID_3170_" d="M7.07 57.15C7.07 51.83 11.41 47.5 16.72 47.5C22.04 47.5 26.37 51.83 26.37 57.15C26.37 62.47 22.04 66.8 16.72 66.8C11.41 66.8 7.07 62.47 7.07 57.15ZM8.87 57.14C8.87 61.47 12.39 64.99 16.72 64.99C21.05 64.99 24.58 61.47 24.58 57.14C24.58 52.81 21.05 49.28 16.72 49.28C12.39 49.28 8.87 52.81 8.87 57.14Z" stroke="#030519" stroke-opacity="1.000000" stroke-width="0.500000"/>
		<path id="XMLID_3167_" d="M16.72 62.35C13.87 62.35 11.53 60.01 11.53 57.15C11.53 54.3 13.87 51.96 16.72 51.96C19.58 51.96 21.92 54.3 21.92 57.15C21.92 60.01 19.58 62.35 16.72 62.35ZM16.72 53.76C14.86 53.76 13.33 55.28 13.33 57.15C13.33 59.02 14.84 60.55 16.72 60.55C18.61 60.55 20.12 59.02 20.12 57.15C20.12 55.28 18.59 53.76 16.72 53.76Z" fill="#030519" fill-opacity="1.000000" fill-rule="nonzero"/>
		<path id="XMLID_3167_" d="M11.53 57.15C11.53 54.3 13.87 51.96 16.72 51.96C19.58 51.96 21.92 54.3 21.92 57.15C21.92 60.01 19.58 62.35 16.72 62.35C13.87 62.35 11.53 60.01 11.53 57.15ZM13.33 57.15C13.33 59.02 14.84 60.55 16.72 60.55C18.61 60.55 20.12 59.02 20.12 57.15C20.12 55.28 18.59 53.76 16.72 53.76C14.86 53.76 13.33 55.28 13.33 57.15Z" stroke="#030519" stroke-opacity="1.000000" stroke-width="0.500000"/>
		<path id="XMLID_3164_" d="M74.94 62.35C72.09 62.35 69.75 60.01 69.75 57.15C69.75 54.3 72.09 51.96 74.94 51.96C77.8 51.96 80.14 54.3 80.14 57.15C80.14 60.01 77.8 62.35 74.94 62.35ZM74.94 53.76C73.07 53.76 71.55 55.28 71.55 57.15C71.55 59.02 73.07 60.55 74.94 60.55C76.81 60.55 78.34 59.02 78.34 57.15C78.34 55.28 76.81 53.76 74.94 53.76Z" fill="#030519" fill-opacity="1.000000" fill-rule="nonzero"/>
		<path id="XMLID_3164_" d="M69.75 57.15C69.75 54.3 72.09 51.96 74.94 51.96C77.8 51.96 80.14 54.3 80.14 57.15C80.14 60.01 77.8 62.35 74.94 62.35C72.09 62.35 69.75 60.01 69.75 57.15ZM71.55 57.15C71.55 59.02 73.07 60.55 74.94 60.55C76.81 60.55 78.34 59.02 78.34 57.15C78.34 55.28 76.81 53.76 74.94 53.76C73.07 53.76 71.55 55.28 71.55 57.15Z" stroke="#030519" stroke-opacity="1.000000" stroke-width="0.500000"/>
		<path id="XMLID_3161_" d="M82.15 47.18L80.41 47.18C78.88 47.18 77.62 45.92 77.62 44.4C77.62 42.87 78.88 41.61 80.41 41.61L82.15 41.61C83.68 41.61 84.93 42.87 84.93 44.4C84.93 45.92 83.68 47.18 82.15 47.18ZM80.41 43.41C79.87 43.41 79.42 43.86 79.42 44.4C79.42 44.93 79.87 45.38 80.41 45.38L82.15 45.38C82.69 45.38 83.14 44.93 83.14 44.4C83.14 43.86 82.69 43.41 82.15 43.41L80.41 43.41Z" fill="#030519" fill-opacity="1.000000" fill-rule="nonzero"/>
		<path id="XMLID_3161_" d="M80.41 47.18C78.88 47.18 77.62 45.92 77.62 44.4C77.62 42.87 78.88 41.61 80.41 41.61L82.15 41.61C83.68 41.61 84.93 42.87 84.93 44.4C84.93 45.92 83.68 47.18 82.15 47.18L80.41 47.18ZM79.42 44.4C79.42 44.93 79.87 45.38 80.41 45.38L82.15 45.38C82.69 45.38 83.14 44.93 83.14 44.4C83.14 43.86 82.69 43.41 82.15 43.41L80.41 43.41C79.87 43.41 79.42 43.86 79.42 44.4Z" stroke="#030519" stroke-opacity="1.000000" stroke-width="0.500000"/>
		<path id="XMLID_3160_" d="M8.13 59.79L2.21 59.79C1.76 59.79 1.38 59.47 1.31 59.02L0 49.68C-0.04 49.43 0.03 49.16 0.21 48.96C0.37 48.76 0.62 48.65 0.89 48.65L2.94 48.65L5.13 37.87C5.15 37.8 5.17 37.73 5.21 37.68L10.87 25.69C11.01 25.38 11.33 25.17 11.67 25.17L20.62 25.17L20.62 26.97L12.25 26.97L6.88 38.34L4.56 49.73C4.47 50.15 4.11 50.45 3.68 50.45L1.94 50.45L3 58L8.13 58L8.13 59.79Z" fill="#030519" fill-opacity="1.000000" fill-rule="nonzero"/>
		<path id="XMLID_3160_" d="M2.21 59.79C1.76 59.79 1.38 59.47 1.31 59.02L0 49.68C-0.04 49.43 0.03 49.16 0.21 48.96C0.37 48.76 0.62 48.65 0.89 48.65L2.94 48.65L5.13 37.87C5.15 37.8 5.17 37.73 5.21 37.68L10.87 25.69C11.01 25.38 11.33 25.17 11.67 25.17L20.62 25.17L20.62 26.97L12.25 26.97L6.88 38.34L4.56 49.73C4.47 50.15 4.11 50.45 3.68 50.45L1.94 50.45L3 58L8.13 58L8.13 59.79L2.21 59.79Z" stroke="#030519" stroke-opacity="1.000000" stroke-width="0.500000"/>
		<path id="XMLID_3159_" d="M91.1 59.79L83.55 59.79L83.55 58L90.2 58L90.2 51.66C90.2 45.53 85.6 40.48 79.51 39.9L68.92 38.9C68.74 38.88 68.56 38.81 68.42 38.68L57.94 29.77C55.82 27.95 53.11 26.97 50.33 26.97L24.22 26.97L24.22 25.17L50.33 25.17C53.54 25.17 56.67 26.32 59.11 28.4L69.37 37.14L79.69 38.11C83.06 38.43 86.19 39.98 88.47 42.49C90.76 45.01 92.01 48.26 92.01 51.66L92.01 58.9C92 59.4 91.6 59.79 91.1 59.79Z" fill="#030519" fill-opacity="1.000000" fill-rule="nonzero"/>
		<path id="XMLID_3159_" d="M83.55 59.79L83.55 58L90.2 58L90.2 51.66C90.2 45.53 85.6 40.48 79.51 39.9L68.92 38.9C68.74 38.88 68.56 38.81 68.42 38.68L57.94 29.77C55.82 27.95 53.11 26.97 50.33 26.97L24.22 26.97L24.22 25.17L50.33 25.17C53.54 25.17 56.67 26.32 59.11 28.4L69.37 37.14L79.69 38.11C83.06 38.43 86.19 39.98 88.47 42.49C90.76 45.01 92.01 48.26 92.01 51.66L92.01 58.9C92 59.4 91.6 59.79 91.1 59.79L83.55 59.79Z" stroke="#030519" stroke-opacity="1.000000" stroke-width="0.500000"/>
		<path id="XMLID_3158_" d="M25.3 58L66.39 58L66.39 59.8L25.3 59.8L25.3 58Z" fill="#030519" fill-opacity="1.000000" fill-rule="nonzero"/>
		<path id="XMLID_3158_" d="M66.39 58L66.39 59.8L25.3 59.8L25.3 58L66.39 58Z" stroke="#030519" stroke-opacity="1.000000" stroke-width="0.500000"/>
		<path id="XMLID_3155_" d="M91.1 55.84L88.58 55.84C87 55.84 85.71 54.55 85.71 52.97C85.71 51.39 87 50.09 88.58 50.09L91.1 50.09C91.6 50.09 92 50.49 92 50.99L92 54.94C92 55.45 91.6 55.84 91.1 55.84ZM88.58 51.89C87.99 51.89 87.5 52.37 87.5 52.97C87.5 53.56 87.99 54.05 88.58 54.05L90.2 54.05L90.2 51.89L88.58 51.89Z" fill="#030519" fill-opacity="1.000000" fill-rule="nonzero"/>
		<path id="XMLID_3155_" d="M88.58 55.84C87 55.84 85.71 54.55 85.71 52.97C85.71 51.39 87 50.09 88.58 50.09L91.1 50.09C91.6 50.09 92 50.49 92 50.99L92 54.94C92 55.45 91.6 55.84 91.1 55.84L88.58 55.84ZM87.5 52.97C87.5 53.56 87.99 54.05 88.58 54.05L90.2 54.05L90.2 51.89L88.58 51.89C87.99 51.89 87.5 52.37 87.5 52.97Z" stroke="#030519" stroke-opacity="1.000000" stroke-width="0.500000"/>
		<path id="XMLID_3152_" d="M29.82 38.99L13.11 38.99C12.81 38.99 12.54 38.83 12.36 38.57C12.2 38.32 12.16 38 12.29 37.71L16.06 28.92C16.2 28.6 16.53 28.39 16.89 28.39L28.92 28.39C29.39 28.39 29.77 28.73 29.82 29.18L30.72 37.98C30.74 38.23 30.67 38.5 30.49 38.68C30.33 38.86 30.07 38.99 29.82 38.99ZM14.48 37.19L28.83 37.19L28.12 30.18L17.48 30.18L14.48 37.19Z" fill="#030519" fill-opacity="1.000000" fill-rule="nonzero"/>
		<path id="XMLID_3152_" d="M13.11 38.99C12.81 38.99 12.54 38.83 12.36 38.57C12.2 38.32 12.16 38 12.29 37.71L16.06 28.92C16.2 28.6 16.53 28.39 16.89 28.39L28.92 28.39C29.39 28.39 29.77 28.73 29.82 29.18L30.72 37.98C30.74 38.23 30.67 38.5 30.49 38.68C30.33 38.86 30.07 38.99 29.82 38.99L13.11 38.99ZM28.83 37.19L28.12 30.18L17.48 30.18L14.48 37.19L28.83 37.19Z" stroke="#030519" stroke-opacity="1.000000" stroke-width="0.500000"/>
		<path id="XMLID_3149_" d="M63.25 38.95L33.6 38.95C33.13 38.95 32.75 38.61 32.7 38.14L31.8 29.34C31.78 29.09 31.85 28.83 32.03 28.64C32.2 28.46 32.45 28.35 32.7 28.35L48.87 28.35C52.34 28.35 55.64 29.66 58.16 32.03L63.86 37.39C64.13 37.64 64.22 38.03 64.07 38.38C63.95 38.74 63.6 38.95 63.25 38.95ZM34.41 37.15L60.98 37.15L56.94 33.35C54.75 31.28 51.89 30.15 48.87 30.15L33.69 30.15L34.41 37.15Z" fill="#030519" fill-opacity="1.000000" fill-rule="nonzero"/>
		<path id="XMLID_3149_" d="M33.6 38.95C33.13 38.95 32.75 38.61 32.7 38.14L31.8 29.34C31.78 29.09 31.85 28.83 32.03 28.64C32.2 28.46 32.45 28.35 32.7 28.35L48.87 28.35C52.34 28.35 55.64 29.66 58.16 32.03L63.86 37.39C64.13 37.64 64.22 38.03 64.07 38.38C63.95 38.74 63.6 38.95 63.25 38.95L33.6 38.95ZM60.98 37.15L56.94 33.35C54.75 31.28 51.89 30.15 48.87 30.15L33.69 30.15L34.41 37.15L60.98 37.15Z" stroke="#030519" stroke-opacity="1.000000" stroke-width="0.500000"/>
		<path id="XMLID_3148_" d="M36.47 42.4L43.48 42.4L43.48 44.2L36.47 44.2L36.47 42.4Z" fill="#030519" fill-opacity="1.000000" fill-rule="nonzero"/>
		<path id="XMLID_3148_" d="M43.48 42.4L43.48 44.2L36.47 44.2L36.47 42.4L43.48 42.4Z" stroke="#030519" stroke-opacity="1.000000" stroke-width="0.500000"/>
		<path id="XMLID_3145_" d="M6.1 59.8L2.21 59.8C1.76 59.8 1.38 59.47 1.31 59.02L0 49.68C-0.04 49.43 0.03 49.16 0.21 48.96C0.37 48.76 0.62 48.65 0.89 48.65L4.07 48.65C5.69 48.65 7 49.97 7 51.58L7 58.9C7 59.4 6.61 59.8 6.1 59.8ZM3 58L5.21 58L5.21 51.58C5.21 50.95 4.7 50.45 4.07 50.45L1.94 50.45L3 58Z" fill="#030519" fill-opacity="1.000000" fill-rule="nonzero"/>
		<path id="XMLID_3145_" d="M2.21 59.8C1.76 59.8 1.38 59.47 1.31 59.02L0 49.68C-0.04 49.43 0.03 49.16 0.21 48.96C0.37 48.76 0.62 48.65 0.89 48.65L4.07 48.65C5.69 48.65 7 49.97 7 51.58L7 58.9C7 59.4 6.61 59.8 6.1 59.8L2.21 59.8ZM5.21 58L5.21 51.58C5.21 50.95 4.7 50.45 4.07 50.45L1.94 50.45L3 58L5.21 58Z" stroke="#030519" stroke-opacity="1.000000" stroke-width="0.500000"/>
		<path id="XMLID_3142_" d="M7.9 47.43L4.31 47.43C4.04 47.43 3.79 47.29 3.61 47.09C3.44 46.88 3.37 46.61 3.43 46.34L4.67 40.25C4.76 39.83 5.12 39.53 5.55 39.53L7.9 39.53C8.4 39.53 8.8 39.9 8.8 40.39L8.8 46.5C8.8 47 8.4 47.43 7.9 47.43ZM5.4 45.64L7 45.64L7 41.32L6.28 41.32L5.4 45.64Z" fill="#030519" fill-opacity="1.000000" fill-rule="nonzero"/>
		<path id="XMLID_3142_" d="M4.31 47.43C4.04 47.43 3.79 47.29 3.61 47.09C3.44 46.88 3.37 46.61 3.43 46.34L4.67 40.25C4.76 39.83 5.12 39.53 5.55 39.53L7.9 39.53C8.4 39.53 8.8 39.9 8.8 40.39L8.8 46.5C8.8 47 8.4 47.43 7.9 47.43L4.31 47.43ZM7 45.64L7 41.32L6.28 41.32L5.4 45.64L7 45.64Z" stroke="#030519" stroke-opacity="1.000000" stroke-width="0.500000"/>
	</g>
</svg>
