<svg width="104.000000" height="92.000000" viewBox="0 0 104 92" fill="none" xmlns="http://www.w3.org/2000/svg" xmlns:xlink="http://www.w3.org/1999/xlink">
	<desc>
			Created with Pixso.
	</desc>
	<defs>
		<clipPath id="clip1_3595">
			<rect id="icon.svg - 2024-03-21T181240.241 1" width="92.000000" height="92.000000" fill="white" fill-opacity="0"/>
		</clipPath>
	</defs>
	<circle id="Ellipse 5" cx="74.000000" cy="38.000000" r="30.000000" fill="#FBCD21" fill-opacity="0.200000"/>
	<rect id="icon.svg - 2024-03-21T181240.241 1" width="92.000000" height="92.000000" fill="#FFFFFF" fill-opacity="0"/>
	<g clip-path="url(#clip1_3595)">
		<mask id="mask1_3599" mask-type="alpha" maskUnits="userSpaceOnUse" x="0.000000" y="0.000000" width="92.000000" height="92.000000">
			<path id="path1794" d="M0 0L92 0L92 92L0 92L0 0Z" fill="#000000" fill-opacity="1.000000" fill-rule="nonzero"/>
			<path id="path1794" d="M92 0L0 0L0 92L92 92L92 0ZM89.5 89.5L2.5 89.5L2.5 2.5L89.5 2.5L89.5 89.5Z" fill="#030519" fill-opacity="1.000000" fill-rule="evenodd"/>
		</mask>
		<g mask="url(#mask1_3599)">
			<path id="path1800" d="M68.84 69.89C64.01 69.89 60.09 65.96 60.09 61.13C60.09 56.29 64.01 52.37 68.84 52.37C73.68 52.37 77.6 56.29 77.6 61.13C77.6 65.96 73.68 69.89 68.84 69.89Z" stroke="#030519" stroke-opacity="1.000000" stroke-width="2.500000" stroke-linejoin="round"/>
			<path id="path1804" d="M68.84 65.51C66.43 65.51 64.47 63.55 64.47 61.13C64.47 58.71 66.43 56.75 68.84 56.75C71.26 56.75 73.22 58.71 73.22 61.13C73.22 63.55 71.26 65.51 68.84 65.51Z" stroke="#030519" stroke-opacity="1.000000" stroke-width="2.500000" stroke-linejoin="round"/>
			<path id="path1808" d="M18.17 69.89C13.33 69.89 9.41 65.96 9.41 61.13C9.41 56.29 13.33 52.37 18.17 52.37C23.01 52.37 26.93 56.29 26.93 61.13C26.93 65.96 23.01 69.89 18.17 69.89Z" stroke="#030519" stroke-opacity="1.000000" stroke-width="2.500000" stroke-linejoin="round"/>
			<path id="path1812" d="M18.17 65.51C15.75 65.51 13.79 63.55 13.79 61.13C13.79 58.71 15.75 56.75 18.17 56.75C20.59 56.75 22.55 58.71 22.55 61.13C22.55 63.55 20.59 65.51 18.17 65.51Z" stroke="#030519" stroke-opacity="1.000000" stroke-width="2.500000" stroke-linejoin="round"/>
			<path id="path1816" d="M86.01 40.37L81.76 25.89C80.91 23.61 78.73 22.11 76.3 22.11L3.46 22.11C2.29 22.11 1.34 23.06 1.34 24.22L1.34 42.8L67.49 42.8C68.37 42.8 69.22 43.1 69.9 43.65L76.55 48.98C77.23 49.53 78.08 49.83 78.95 49.83L87.71 49.83L87.71 49.7C87.71 46.51 87.13 43.35 86.01 40.37Z" stroke="#030519" stroke-opacity="1.000000" stroke-width="2.500000" stroke-linejoin="round"/>
			<path id="path1820" d="M86.01 40.37L81.76 25.89C80.91 23.61 78.73 22.11 76.3 22.11L3.46 22.11C2.29 22.11 1.34 23.06 1.34 24.22L1.34 42.8L67.49 42.8C68.37 42.8 69.22 43.1 69.9 43.65L76.55 48.98C77.23 49.53 78.08 49.83 78.95 49.83L87.71 49.83L87.71 49.7C87.71 46.51 87.13 43.35 86.01 40.37Z" stroke="#030519" stroke-opacity="1.000000" stroke-width="2.500000" stroke-linejoin="round"/>
			<path id="path1824" d="M81.76 25.89C80.91 23.61 78.73 22.1 76.3 22.1L3.46 22.1C2.29 22.1 1.34 23.06 1.34 24.22L1.34 59.01C1.34 60.18 2.29 61.13 3.46 61.13L9.41 61.13C9.41 56.29 13.33 52.37 18.17 52.37C23.01 52.37 26.93 56.29 26.93 61.13L60.09 61.13C60.09 56.29 64.01 52.37 68.84 52.37C73.68 52.37 77.6 56.29 77.6 61.13L85.59 61.13C86.75 61.13 87.71 60.18 87.71 59.01L87.71 49.7C87.71 46.51 87.13 43.35 86.01 40.37L81.76 25.89Z" stroke="#030519" stroke-opacity="1.000000" stroke-width="2.500000" stroke-linejoin="round"/>
			<path id="path1828" d="M1.34 24.22L1.34 27.37L82.2 27.37L81.76 25.89C80.91 23.61 78.73 22.1 76.3 22.1L3.46 22.1C2.29 22.1 1.34 23.06 1.34 24.22Z" stroke="#030519" stroke-opacity="1.000000" stroke-width="2.500000" stroke-linejoin="round"/>
			<path id="path1832" d="M67.49 42.8C67.84 42.8 68.18 42.85 68.5 42.94L68.5 27.37L63.4 27.37L63.4 42.8L67.49 42.8Z" stroke="#030519" stroke-opacity="1.000000" stroke-width="2.500000" stroke-linejoin="round"/>
			<path id="path1834" d="M34.48 42.8L34.48 27.37L29.37 27.37L29.37 42.8L34.48 42.8Z" stroke="#030519" stroke-opacity="1.000000" stroke-width="2.500000" stroke-linejoin="round"/>
			<path id="path1836" d="M17.46 42.8L17.46 27.37L12.36 27.37L12.36 42.8L17.46 42.8Z" stroke="#030519" stroke-opacity="1.000000" stroke-width="2.500000" stroke-linejoin="round"/>
			<path id="path1840" d="M83.11 30.47L88.59 30.47L90.65 " stroke="#030519" stroke-opacity="1.000000" stroke-width="2.500000" stroke-linejoin="round" stroke-linecap="round"/>
			<path id="path1844" d="M46.07 48L75.32 48L69.9 43.65C69.22 43.1 68.37 42.8 67.49 42.8L1.34 42.8L1.34 48L39.78 " stroke="#030519" stroke-opacity="1.000000" stroke-width="2.500000" stroke-linejoin="round" stroke-linecap="round"/>
			<path id="path1848" d="M51.49 32.01L51.49 27.37L46.38 27.37L46.38 42.8L51.49 42.8L51.49 " stroke="#030519" stroke-opacity="1.000000" stroke-width="2.500000" stroke-linejoin="round" stroke-linecap="round"/>
		</g>
	</g>
</svg>
