<svg width="104.000000" height="92.000000" viewBox="0 0 104 92" fill="none" xmlns="http://www.w3.org/2000/svg" xmlns:xlink="http://www.w3.org/1999/xlink">
	<desc>
			Created with Pixso.
	</desc>
	<defs>
		<clipPath id="clip1_3251">
			<rect id="icon.svg - 2024-03-21T180653.901 1" width="92.000000" height="92.000000" fill="white" fill-opacity="0"/>
		</clipPath>
	</defs>
	<circle id="Ellipse 5" cx="74.000000" cy="38.000000" r="30.000000" fill="#FBCD21" fill-opacity="0.200000"/>
	<rect id="icon.svg - 2024-03-21T180653.901 1" width="92.000000" height="92.000000" fill="#FFFFFF" fill-opacity="0"/>
	<g clip-path="url(#clip1_3251)">
		<path id="Vector" d="M89.96 52.52C89.58 51.88 88.75 51.67 88.11 52.04C87.47 52.42 87.26 53.25 87.63 53.89C88.72 55.74 89.3 57.86 89.3 60.02C89.3 66.71 83.86 72.16 77.17 72.16C70.48 72.16 65.03 66.71 65.03 60.02C65.03 58.32 65.39 56.65 66.07 55.11L69.65 58.51C69.55 59.01 69.5 59.51 69.5 60.02C69.5 64.25 72.94 67.68 77.17 67.68C81.39 67.68 84.83 64.25 84.83 60.02C84.83 55.8 81.39 52.36 77.17 52.36C76.53 52.36 75.9 52.44 75.28 52.59L71.7 49.19C73.39 48.34 75.25 47.89 77.17 47.89C80.05 47.89 82.84 48.92 85.03 50.79C85.29 51 85.6 51.11 85.91 51.11C86.29 51.11 86.67 50.95 86.93 50.64C87.42 50.07 87.35 49.22 86.78 48.74C84.1 46.45 80.69 45.19 77.17 45.19C74.5 45.19 71.92 45.9 69.65 47.24L67.99 45.66C70.45 44.27 73.29 43.47 76.31 43.47C77.21 43.47 78.11 43.54 78.99 43.68C79.38 43.74 79.78 43.63 80.09 43.37L84.34 39.68C85.02 39.1 85.53 38.36 85.85 37.55C86.98 34.63 87.04 29.12 84.87 26.64C78.93 19.86 70.12 16.52 60.05 17.24C57.58 17.41 56.15 20.14 57.43 22.28L58.02 23.28L55.21 23.28C54.46 23.28 53.86 23.88 53.86 24.63C53.86 25.37 54.46 25.97 55.21 25.97L59.55 25.97C60.18 27.35 60.47 28.85 60.42 30.35C57.71 27.95 54.23 26.61 50.53 26.61C45.65 26.61 41.15 28.95 38.35 32.91L28.65 32.91C27.89 32.91 27.14 32.65 26.55 32.17L16.69 24.25C16.45 24.06 16.15 23.95 15.84 23.95L7.78 23.95C5.54 23.95 3.72 25.77 3.72 28.01C3.72 29.31 4.36 30.54 5.42 31.31L8.32 33.39C8.92 33.82 9.76 33.68 10.2 33.08C10.63 32.48 10.49 31.63 9.89 31.2L6.99 29.12C6.63 28.86 6.42 28.45 6.42 28.01C6.42 27.26 7.03 26.65 7.78 26.65L15.37 26.65L24.86 34.27C25.93 35.13 27.28 35.61 28.65 35.61L38.85 35.61L47.58 38.94L52.38 40.78C52.13 40.91 48.9 43.75 43.63 43.75L40.67 43.75C37.71 43.75 34.9 45.34 33.38 48.08L31.16 46.48C31.16 46.48 31.16 46.48 31.16 46.48L13.54 33.82C12.94 33.39 12.1 33.53 11.66 34.13C11.23 34.74 11.37 35.58 11.97 36.01L27.94 47.48L25.04 49.27C22.29 46.67 18.63 45.19 14.82 45.19C6.65 45.19 0 51.84 0 60.02C0 68.2 6.65 74.85 14.82 74.85C23 74.85 29.65 68.2 29.65 60.02C29.65 58.77 29.49 57.52 29.18 56.31L32.37 54.35L32.37 64.45C32.37 68.3 35.5 71.44 39.35 71.44L45.85 71.44L45.85 72.15L37.05 72.15C36.31 72.15 35.71 72.76 35.71 73.5C35.71 74.25 36.31 74.85 37.05 74.85L47.19 74.85C47.94 74.85 48.54 74.25 48.54 73.5L48.54 71.44L60.91 71.44C61.4 71.44 61.85 71.17 62.09 70.74C62.32 70.31 62.31 69.78 62.05 69.37C60.34 66.67 59.43 63.55 59.43 60.34C59.43 57.02 60.4 53.91 62.07 51.3L64.02 53.16C62.92 55.27 62.34 57.62 62.34 60.02C62.34 68.2 68.99 74.85 77.17 74.85C85.34 74.85 92 68.2 92 60.02C92 57.38 91.29 54.79 89.96 52.52ZM82.13 60.02C82.13 62.76 79.91 64.99 77.17 64.99C74.77 64.99 72.77 63.29 72.3 61.03L74.35 62.98C75.11 63.71 76.11 64.11 77.17 64.11C78.28 64.11 79.36 63.64 80.13 62.84C80.88 62.05 81.28 61.01 81.25 59.92C81.22 58.83 80.77 57.81 79.98 57.06L77.93 55.11C80.31 55.48 82.13 57.54 82.13 60.02ZM83.29 29.11C84.31 31.35 84 35.17 83.27 36.72C81.45 36.41 80.07 34.82 80.07 32.92C80.07 31.01 81.46 29.42 83.29 29.11ZM50.53 29.3C54.11 29.3 57.44 30.83 59.77 33.52C58.42 37.03 55.77 38.24 55.01 38.9L43.77 34.6L41.2 33.62C43.51 30.89 46.89 29.3 50.53 29.3ZM32.47 50.74C32.45 50.87 32.43 51.01 32.41 51.16L20.43 58.53C20.43 58.53 20.42 58.53 20.42 58.53L16.38 61.02C15.73 61.41 14.87 61.2 14.48 60.54C14.28 60.22 14.23 59.83 14.33 59.46C14.42 59.11 14.64 58.82 14.96 58.63L19.19 56.03C19.19 56.03 19.2 56.03 19.2 56.02L25.51 52.15C25.51 52.14 25.51 52.14 25.51 52.14L30.31 49.19L32.47 50.74ZM12.17 61.94C12.94 63.21 14.29 63.91 15.67 63.91C16.39 63.91 17.12 63.72 17.79 63.32L19.13 62.49C18.27 63.98 16.67 64.99 14.82 64.99C12.08 64.99 9.86 62.76 9.86 60.02C9.86 57.28 12.08 55.05 14.82 55.05C15.07 55.05 15.31 55.07 15.55 55.11L13.56 56.33C12.66 56.87 12.01 57.73 11.73 58.75C11.44 59.82 11.6 60.98 12.17 61.94ZM26.96 60.02C26.96 66.71 21.51 72.15 14.82 72.15C8.13 72.16 2.69 66.71 2.69 60.02C2.69 53.33 8.13 47.89 14.82 47.89C17.69 47.89 20.46 48.92 22.64 50.75L18.49 53.29C17.37 52.68 16.12 52.36 14.82 52.36C10.6 52.36 7.16 55.8 7.16 60.02C7.16 64.25 10.6 67.68 14.82 67.68C18.91 67.68 22.26 64.47 22.48 60.43L26.75 57.8C26.89 58.53 26.96 59.27 26.96 60.02ZM58.63 68.74L39.35 68.74C36.99 68.74 35.06 66.82 35.06 64.45L35.06 52.05C35.06 49.25 37.13 46.95 39.76 46.52C42.16 46.12 47.55 47.56 53.56 43.26C57.81 40.21 61.66 38.27 62.86 32.56C63.32 30.34 63.17 28.08 62.45 25.98L64.04 25.98C64.79 25.98 65.39 25.37 65.39 24.63C65.39 23.88 64.79 23.28 64.04 23.28L61.15 23.28L59.74 20.91C59.5 20.5 59.76 19.96 60.24 19.92C68.64 19.32 76.06 21.78 81.37 26.88C79.02 27.88 77.37 30.21 77.37 32.92C77.37 35.55 78.93 37.82 81.17 38.86L78.79 40.93C77.97 40.82 77.14 40.77 76.31 40.77C65.53 40.77 56.74 49.53 56.74 60.34C56.74 63.27 57.39 66.13 58.63 68.74ZM65.72 47.22L68.56 49.92C68.56 49.92 68.56 49.92 68.56 49.92L78.12 59.02C78.39 59.27 78.54 59.62 78.55 59.99C78.56 60.36 78.43 60.71 78.17 60.98C77.91 61.26 77.55 61.41 77.17 61.41C76.81 61.41 76.47 61.27 76.21 61.03L66.65 51.94C66.65 51.93 66.64 51.93 66.64 51.93L63.7 49.14C64.32 48.44 64.99 47.8 65.72 47.22Z" fill="#030519" fill-opacity="1.000000" fill-rule="nonzero"/>
		<path id="Vector" d="M46 61.22L42.12 61.22C41.38 61.22 40.78 61.82 40.78 62.56C40.78 63.31 41.38 63.91 42.12 63.91L46 63.91C46.74 63.91 47.34 63.31 47.34 62.56C47.34 61.82 46.74 61.22 46 61.22Z" fill="#030519" fill-opacity="1.000000" fill-rule="nonzero"/>
	</g>
</svg>
