<svg width="105.000000" height="92.000000" viewBox="0 0 105 92" fill="none" xmlns="http://www.w3.org/2000/svg" xmlns:xlink="http://www.w3.org/1999/xlink">
	<desc>
			Created with Pixso.
	</desc>
	<defs>
		<clipPath id="clip1_3746">
			<rect id="icon.svg - 2024-03-21T181430.795 1" width="92.000000" height="92.000000" fill="white" fill-opacity="0"/>
		</clipPath>
	</defs>
	<circle id="Ellipse 5" cx="74.000000" cy="38.000000" r="30.000000" fill="#FBCD21" fill-opacity="0.200000"/>
	<rect id="icon.svg - 2024-03-21T181430.795 1" width="92.000000" height="92.000000" fill="#FFFFFF" fill-opacity="0"/>
	<g clip-path="url(#clip1_3746)">
		<path id="Vector" d="M42.92 69L49.07 69C49.81 69 50.42 68.4 50.42 67.66C50.42 66.91 49.81 66.31 49.07 66.31L42.92 66.31C42.18 66.31 41.57 66.91 41.57 67.66C41.57 68.4 42.18 69 42.92 69Z" fill="#030519" fill-opacity="1.000000" fill-rule="nonzero"/>
		<path id="Vector" d="M56.21 41.42L58.93 37.84C59.38 37.25 59.27 36.4 58.67 35.95C58.08 35.5 57.23 35.62 56.78 36.21L56.62 36.42C56 30.94 51.34 26.67 45.69 26.67C42.8 26.67 40.07 27.78 38.01 29.8C37.47 30.32 37.46 31.17 37.98 31.7C38.5 32.24 39.36 32.25 39.89 31.73C41.45 30.2 43.51 29.36 45.69 29.36C49.98 29.36 53.52 32.63 53.95 36.8L53.5 36.21C53.05 35.62 52.2 35.5 51.61 35.95C51.01 36.4 50.9 37.25 51.35 37.84L54.07 41.42C54.32 41.75 54.72 41.95 55.14 41.95C55.56 41.95 55.96 41.75 56.21 41.42Z" fill="#030519" fill-opacity="1.000000" fill-rule="nonzero"/>
		<path id="Vector" d="M39.57 40.13C39.85 40.13 40.14 40.04 40.38 39.85C40.98 39.4 41.09 38.55 40.64 37.96L37.92 34.39C37.67 34.05 37.27 33.85 36.85 33.85C36.43 33.85 36.03 34.05 35.78 34.39L33.06 37.96C32.61 38.55 32.72 39.4 33.32 39.85C33.91 40.3 34.76 40.19 35.21 39.59L35.37 39.38C35.99 44.86 40.65 49.14 46.3 49.14C49.19 49.14 51.92 48.03 53.98 46.01C54.52 45.49 54.53 44.63 54.01 44.1C53.49 43.57 52.63 43.56 52.1 44.08C50.54 45.6 48.48 46.44 46.3 46.44C42.01 46.44 38.47 43.17 38.04 39L38.49 39.59C38.76 39.94 39.16 40.13 39.57 40.13Z" fill="#030519" fill-opacity="1.000000" fill-rule="nonzero"/>
		<path id="Vector" d="M46 20C36.13 20 28.1 28.03 28.1 37.9C28.1 47.77 36.13 55.8 46 55.8C51.89 55.8 57.41 52.9 60.75 48.04C61.17 47.42 61.02 46.58 60.4 46.16C59.79 45.74 58.95 45.89 58.53 46.51C55.69 50.64 51 53.1 46 53.1C37.61 53.1 30.79 46.28 30.79 37.9C30.79 29.52 37.61 22.7 46 22.7C54.38 22.7 61.2 29.52 61.2 37.9C61.2 39 61.08 40.1 60.84 41.17C60.69 41.89 61.15 42.61 61.87 42.77C62.6 42.93 63.32 42.47 63.48 41.74C63.76 40.49 63.89 39.2 63.89 37.9C63.89 28.03 55.86 20 46 20Z" fill="#030519" fill-opacity="1.000000" fill-rule="nonzero"/>
		<path id="Vector" d="M86.09 9.64L79.04 9.64L79.04 6.48C79.04 4.67 77.57 3.2 75.76 3.2L42.88 3.2C42.13 3.2 41.53 3.81 41.53 4.55C41.53 5.3 42.13 5.9 42.88 5.9L75.76 5.9C76.08 5.9 76.34 6.16 76.34 6.48L76.34 12.59L15.65 12.59L15.65 6.48C15.65 6.16 15.91 5.9 16.23 5.9L36.57 5.9C37.32 5.9 37.92 5.3 37.92 4.55C37.92 3.81 37.32 3.2 36.57 3.2L16.23 3.2C14.42 3.2 12.95 4.67 12.95 6.48L12.95 9.64L5.9 9.64C2.64 9.64 0 12.29 0 15.55L0 61.87L0 68.89C0 72.15 2.64 74.79 5.9 74.79L35.9 74.79C35.8 77.87 35.49 83.2 34.8 86.09L30.13 86.09C29.38 86.09 28.78 86.69 28.78 87.44C28.78 88.18 29.38 88.79 30.13 88.79L61.86 88.79C62.61 88.79 63.21 88.18 63.21 87.44C63.21 86.69 62.61 86.09 61.86 86.09L57.19 86.09C56.5 83.2 56.19 77.87 56.09 74.79L86.09 74.79C89.35 74.79 91.99 72.15 91.99 68.89L91.99 15.55C92 12.29 89.35 9.64 86.09 9.64ZM79.04 18.53L83.03 18.53C83.38 18.53 83.67 18.82 83.67 19.17L83.67 60.52L79.04 60.52L79.04 18.53L79.04 18.53ZM15.65 15.29L76.34 15.29L76.34 60.52L15.65 60.52L15.65 15.29ZM2.69 15.55C2.69 13.78 4.13 12.34 5.9 12.34L12.95 12.34L12.95 15.83L8.96 15.83C7.12 15.83 5.62 17.33 5.62 19.17L5.62 60.52L2.69 60.52L2.69 15.55ZM12.95 18.53L12.95 60.52L8.32 60.52L8.32 19.17C8.32 18.82 8.61 18.53 8.96 18.53L12.95 18.53L12.95 18.53ZM37.56 86.09C38.28 82.59 38.52 77.26 38.6 74.79L53.39 74.79C53.47 77.26 53.71 82.59 54.43 86.09L37.56 86.09ZM89.3 68.89C89.3 70.66 87.86 72.1 86.09 72.1L5.9 72.1C4.13 72.1 2.69 70.66 2.69 68.89L2.69 63.22L89.3 63.22L89.3 68.89ZM89.3 60.52L86.37 60.52L86.37 19.17C86.37 17.33 84.87 15.83 83.03 15.83L79.04 15.83L79.04 12.34L86.09 12.34C87.86 12.34 89.3 13.78 89.3 15.55L89.3 60.52Z" fill="#030519" fill-opacity="1.000000" fill-rule="nonzero"/>
	</g>
</svg>
