<svg width="220.000000" height="47.000000" viewBox="0 0 220 47" fill="none" xmlns="http://www.w3.org/2000/svg" xmlns:xlink="http://www.w3.org/1999/xlink">
	<desc>
			Created with Pixso.
	</desc>
	<defs/>
	<path id="Auto Doc" d="M107.62 34.02L106.26 29.69L98.68 29.69L97.31 34.02L93.44 34.02L100.82 11.9L104.27 11.9L111.69 34.02L107.62 34.02ZM170.87 34.02L170.87 11.9L178.35 11.9C180.99 11.9 183.01 12.64 184.4 14.11C185.78 15.59 186.48 17.76 186.48 20.62L186.48 25.27C186.48 28.15 185.78 30.33 184.4 31.81C183.01 33.28 180.99 34.02 178.35 34.02L170.87 34.02ZM143.17 33.47C142.61 33.73 141.96 33.93 141.22 34.08C140.48 34.26 139.73 34.34 138.97 34.34C137.72 34.34 136.71 34.08 135.95 33.56C135.19 33.04 134.64 32.32 134.29 31.38C133.97 30.45 133.8 29.39 133.8 28.2L133.8 20.78L131.14 20.78L131.14 17.53L133.8 17.53L133.8 13.24L137.54 13.24L137.54 17.53L142.68 17.53L142.68 20.78L137.54 20.78L137.54 28.2C137.54 29.19 137.73 29.89 138.1 30.28C138.49 30.65 139.04 30.83 139.75 30.83C140.1 30.83 140.47 30.8 140.86 30.73C141.27 30.65 141.73 30.51 142.23 30.31L143.17 33.47ZM178.18 15.64L174.77 15.64L174.77 30.28L178.18 30.28C179.72 30.28 180.82 29.9 181.47 29.14C182.14 28.38 182.48 27.09 182.48 25.27L182.48 20.62C182.48 18.82 182.14 17.54 181.47 16.78C180.82 16.02 179.72 15.64 178.18 15.64ZM159.67 24.78L159.67 26.73Q159.67 29.73 158.25 31.69Q158.04 31.99 157.79 32.26C156.53 33.65 154.75 34.34 152.45 34.34C150.16 34.34 148.38 33.65 147.12 32.26Q146.87 31.99 146.66 31.69Q145.23 29.73 145.23 26.73L145.23 24.78C145.23 22.48 145.85 20.65 147.09 19.29C148.35 17.9 150.13 17.2 152.45 17.2C154.77 17.2 156.55 17.9 157.79 19.29Q158.02 19.54 158.23 19.82Q159.67 21.77 159.67 24.78ZM204.65 24.78L204.65 26.73C204.65 29.03 204.02 30.87 202.76 32.26Q202.37 32.69 201.92 33.03Q200.17 34.34 197.43 34.34C195.13 34.34 193.35 33.65 192.09 32.26C190.84 30.87 190.21 29.03 190.21 26.73L190.21 24.78Q190.21 21.7 191.69 19.74L191.69 19.74Q191.86 19.5 192.06 19.29C193.32 17.9 195.11 17.2 197.43 17.2Q200.25 17.2 202 18.57Q202.41 18.89 202.76 19.29C204.02 20.65 204.65 22.48 204.65 24.78ZM211.7 24.81L211.7 26.73C211.7 28.12 211.95 29.16 212.45 29.86C212.95 30.55 213.75 30.9 214.86 30.9C215.4 30.9 216.01 30.83 216.68 30.7C217.37 30.55 218.12 30.32 218.92 30.02L220 33.17C219.02 33.56 218.1 33.86 217.23 34.05C216.36 34.25 215.51 34.34 214.66 34.34C212.49 34.34 210.83 33.65 209.69 32.26C208.54 30.87 207.96 29.03 207.96 26.73L207.96 24.81C207.96 22.49 208.54 20.65 209.69 19.29C210.83 17.9 212.49 17.2 214.66 17.2C215.49 17.2 216.32 17.3 217.17 17.5C218.01 17.69 218.9 17.97 219.83 18.34L218.76 21.56C217.2 20.95 215.9 20.65 214.86 20.65C213.75 20.65 212.95 21 212.45 21.69C211.95 22.36 211.7 23.4 211.7 24.81ZM100.79 22.93L99.78 26.12L105.12 26.12L104.11 22.93L102.48 17.33L100.79 22.93ZM124.56 34.02L124.56 31.84C123.56 32.71 122.63 33.35 121.76 33.76C120.89 34.15 120.01 34.34 119.13 34.34Q117.61 34.34 116.57 33.64Q116.09 33.32 115.71 32.85C114.91 31.83 114.51 30.41 114.51 28.59L114.51 17.53L118.25 17.53L118.25 28.13C118.25 29.95 118.92 30.86 120.26 30.86C120.81 30.86 121.39 30.73 122.02 30.47C122.67 30.21 123.45 29.71 124.36 28.98L124.36 17.53L128.1 17.53L128.1 34.02L124.56 34.02ZM155.84 24.78C155.84 23.46 155.54 22.43 154.96 21.69C154.37 20.93 153.54 20.55 152.45 20.55C151.37 20.55 150.53 20.93 149.95 21.69C149.36 22.43 149.07 23.46 149.07 24.78L149.07 26.73C149.07 28.06 149.36 29.1 149.95 29.86C150.53 30.61 151.37 30.99 152.45 30.99C153.54 30.99 154.37 30.61 154.96 29.86C155.54 29.1 155.84 28.06 155.84 26.73L155.84 24.78ZM200.81 24.78C200.81 23.46 200.52 22.43 199.93 21.69C199.35 20.93 198.51 20.55 197.43 20.55C196.34 20.55 195.51 20.93 194.92 21.69C194.34 22.43 194.04 23.46 194.04 24.78L194.04 26.73C194.04 28.06 194.34 29.1 194.92 29.86C195.51 30.61 196.34 30.99 197.43 30.99C198.51 30.99 199.35 30.61 199.93 29.86C200.52 29.1 200.81 28.06 200.81 26.73L200.81 24.78Z" fill="#FFFFFF" fill-opacity="1.000000" fill-rule="evenodd"/>
	<path id="Vector" d="M63.31 15.12L67.97 15.12C69.62 15.12 71.06 13.89 71.16 12.27C71.28 10.5 69.85 9.03 68.07 9.03L66.54 9.03C64.08 9.03 62.08 10.99 62.08 13.41L62.08 14.84C61.79 14.79 61.5 14.75 61.21 14.72C61.19 14.72 61.17 14.71 61.15 14.71L56.36 2.95C55.85 1.69 54.61 0.86 53.22 0.86C48.24 0.29 43.23 -0.03 38.21 -0.11L39.04 4.48C39.06 4.61 39.17 4.72 39.3 4.76C40.6 5.09 41.84 5.6 42.97 6.25C43.09 6.32 43.24 6.31 43.36 6.23L47.32 3.51C47.46 3.41 47.66 3.43 47.78 3.55L50.98 6.69C51.1 6.81 51.12 7 51.02 7.14L48.24 11.04C48.16 11.15 48.16 11.3 48.23 11.42C48.89 12.53 49.41 13.74 49.75 15.02C49.78 15.15 49.89 15.26 50.03 15.28L54.8 16.11C54.97 16.14 55.09 16.28 55.09 16.45L55.09 20.9C55.09 21.07 54.97 21.22 54.8 21.25L50.03 22.07C49.89 22.1 49.78 22.2 49.75 22.33C49.41 23.61 48.89 24.82 48.23 25.94C48.16 26.06 48.16 26.2 48.24 26.31L51.02 30.21C51.12 30.35 51.1 30.54 50.98 30.66L47.78 33.8C47.66 33.92 47.46 33.94 47.32 33.84L43.36 31.12C43.24 31.04 43.09 31.03 42.97 31.1C41.84 31.76 40.6 32.26 39.3 32.6C39.17 32.63 39.06 32.74 39.04 32.87L38.21 37.51L48.67 37.51C49.7 37.51 50.61 38.22 50.75 39.22C50.91 40.24 51.8 41 52.85 41L56.53 41L56.53 44.97C56.53 45.6 57.05 46.1 57.69 46.1L67.44 46.1C68.08 46.1 68.6 45.6 68.6 44.97L68.6 41L70.01 41C70.65 41 71.17 40.49 71.17 39.86L71.17 25.45C71.17 20.59 67.89 16.44 63.31 15.12ZM63.19 31.78L55.76 31.78C54.78 31.78 53.98 30.99 53.98 30.03C53.98 26.8 56.65 24.18 59.94 24.18L63.19 24.18C65.33 24.18 67.06 25.88 67.06 27.98C67.06 30.07 65.33 31.78 63.19 31.78Z" fill="#FBCD21" fill-opacity="1.000000" fill-rule="nonzero"/>
	<path id="Vector" d="M32.13 32.87C32.1 32.74 32 32.63 31.86 32.6C30.56 32.26 29.33 31.76 28.19 31.1C28.07 31.03 27.92 31.04 27.81 31.12L23.85 33.84C23.7 33.94 23.51 33.92 23.39 33.8L20.19 30.66C20.06 30.54 20.05 30.35 20.15 30.21L22.92 26.31C23 26.2 23.01 26.06 22.94 25.94C22.27 24.82 21.76 23.61 21.42 22.33C21.38 22.2 21.27 22.1 21.14 22.07L16.37 21.25C16.2 21.22 16.07 21.07 16.07 20.9L16.07 16.45C16.07 16.28 16.2 16.14 16.37 16.11L21.14 15.28C21.27 15.26 21.38 15.16 21.42 15.02C21.76 13.74 22.27 12.53 22.94 11.42C23.01 11.3 23 11.15 22.92 11.04L20.15 7.14C20.05 7 20.06 6.81 20.19 6.69L23.39 3.55C23.51 3.43 23.7 3.41 23.85 3.51L27.81 6.23C27.92 6.31 28.07 6.32 28.19 6.25C29.33 5.6 30.56 5.09 31.86 4.76C32 4.72 32.1 4.61 32.13 4.48L32.95 -0.11C27.94 -0.03 22.93 0.29 17.94 0.86C16.56 0.86 15.32 1.69 14.8 2.95L10.02 14.71C10 14.71 9.98 14.72 9.96 14.72C9.66 14.75 9.38 14.79 9.09 14.84L9.09 13.41C9.09 10.99 7.09 9.03 4.62 9.03L3.09 9.03C1.31 9.03 -0.12 10.5 0 12.27C0.11 13.89 1.55 15.12 3.2 15.12L7.86 15.12C3.28 16.44 0 20.59 0 25.45L0 39.86C0 40.49 0.51 41 1.15 41L2.57 41L2.57 44.97C2.57 45.6 3.09 46.1 3.73 46.1L13.48 46.1C14.11 46.1 14.63 45.6 14.63 44.97L14.63 41L18.32 41C19.37 41 20.26 40.24 20.41 39.22C20.56 38.22 21.47 37.51 22.49 37.51L32.96 37.51L32.13 32.87ZM17.18 30.03C17.18 30.99 16.39 31.78 15.41 31.78L7.97 31.78C5.84 31.78 4.11 30.07 4.11 27.98C4.11 25.88 5.84 24.18 7.97 24.18L11.23 24.18C14.52 24.18 17.18 26.8 17.18 30.03Z" fill="#FBCD21" fill-opacity="1.000000" fill-rule="nonzero"/>
	<path id="Vector" d="M63.31 15.12L67.97 15.12C69.62 15.12 71.06 13.89 71.16 12.27C71.28 10.5 69.85 9.03 68.07 9.03L66.54 9.03C64.08 9.03 62.08 10.99 62.08 13.41L62.08 14.84C61.79 14.79 61.5 14.75 61.21 14.72C61.19 14.72 61.17 14.71 61.15 14.71L56.36 2.95C55.85 1.69 54.61 0.86 53.22 0.86C50.46 0.54 47.69 0.31 44.91 0.14C45.23 0.45 45.49 0.82 45.66 1.25C45.66 1.25 46.13 2.32 46.81 3.86L47.32 3.51C47.46 3.41 47.66 3.43 47.78 3.55L50.98 6.69C51.1 6.81 51.12 7 51.02 7.14L49.31 9.54C50.23 11.64 51.06 13.52 51.41 14.31C51.53 14.56 51.77 14.72 52.05 14.73C57.23 14.96 61.38 19.07 61.55 24.18L63.06 24.18C65.19 24.18 67.02 25.81 67.06 27.9C67.1 30.04 65.35 31.78 63.19 31.78L61.56 31.78L61.56 39.86C61.56 40.49 61.04 41 60.41 41L58.99 41L58.99 44.97C58.99 45.59 58.47 46.1 57.83 46.1L67.44 46.1C68.08 46.1 68.6 45.59 68.6 44.97L68.6 41L70.01 41C70.65 41 71.17 40.49 71.17 39.86L71.17 25.45C71.17 20.59 67.89 16.44 63.31 15.12Z" fill="#FBCD21" fill-opacity="1.000000" fill-rule="nonzero"/>
	<path id="Vector" d="M12.18 44.97L12.18 41L10.76 41C10.12 41 9.6 40.49 9.6 39.86L9.6 31.78L7.97 31.78C7.84 31.78 7.71 31.77 7.58 31.76C7.53 31.75 7.49 31.74 7.45 31.74C7.36 31.73 7.27 31.71 7.19 31.7C7.14 31.69 7.09 31.67 7.04 31.66C6.96 31.64 6.89 31.63 6.82 31.6C6.76 31.59 6.71 31.57 6.66 31.55C6.59 31.52 6.53 31.5 6.46 31.47C6.41 31.45 6.36 31.43 6.31 31.4C6.25 31.37 6.18 31.34 6.12 31.31C6.07 31.29 6.02 31.25 5.97 31.23C5.92 31.19 5.86 31.16 5.8 31.12C5.75 31.09 5.71 31.05 5.66 31.02C5.61 30.98 5.55 30.94 5.5 30.9C5.46 30.86 5.42 30.82 5.37 30.78C5.32 30.74 5.27 30.7 5.23 30.65C5.19 30.61 5.15 30.57 5.11 30.52C5.06 30.48 5.02 30.43 4.98 30.38C4.94 30.33 4.91 30.29 4.87 30.24C4.83 30.19 4.79 30.14 4.76 30.08C4.72 30.03 4.69 29.98 4.66 29.93C4.63 29.88 4.59 29.82 4.56 29.77C4.53 29.72 4.51 29.66 4.48 29.61C4.46 29.55 4.43 29.49 4.4 29.43C4.38 29.38 4.36 29.32 4.34 29.26C4.32 29.2 4.29 29.14 4.27 29.08C4.26 29.02 4.24 28.96 4.23 28.9C4.21 28.84 4.19 28.78 4.18 28.71C4.17 28.65 4.16 28.59 4.15 28.53C4.14 28.47 4.13 28.4 4.12 28.33C4.12 28.27 4.12 28.21 4.12 28.15C4.11 28.09 4.11 28.03 4.11 27.98C4.11 27.96 4.11 27.95 4.11 27.94C4.11 27.93 4.11 27.92 4.11 27.91C4.11 27.86 4.11 27.81 4.12 27.76C4.12 27.69 4.13 27.62 4.13 27.54C4.14 27.51 4.14 27.47 4.15 27.43C4.42 25.59 6.03 24.18 7.97 24.18L8.1 24.18L9.61 24.18C9.79 19.07 13.94 14.96 19.12 14.73C19.39 14.72 19.64 14.56 19.75 14.32C20.11 13.52 20.94 11.64 21.86 9.54L20.15 7.14C20.05 7 20.06 6.81 20.19 6.69L23.39 3.55C23.51 3.43 23.7 3.41 23.85 3.51L24.36 3.86C25.03 2.32 25.51 1.25 25.51 1.25C25.68 0.82 25.94 0.45 26.26 0.14C23.48 0.31 20.71 0.55 17.94 0.86C16.56 0.86 15.32 1.69 14.8 2.95L10.02 14.71C10 14.71 9.98 14.72 9.96 14.72C9.67 14.75 9.38 14.79 9.09 14.84L9.09 13.41C9.09 10.99 7.09 9.03 4.62 9.03L3.09 9.03C1.31 9.03 -0.11 10.5 0 12.27C0.11 13.89 1.55 15.12 3.2 15.12L7.86 15.12C3.28 16.44 0 20.59 0 25.45L0 39.86C0 40.49 0.51 41 1.15 41L2.57 41L2.57 44.97C2.57 45.6 3.09 46.1 3.73 46.1L13.34 46.1C12.7 46.1 12.18 45.6 12.18 44.97Z" fill="#FBCD21" fill-opacity="1.000000" fill-rule="nonzero"/>
	<path id="Vector" d="M35.58 8.69L32.96 13.08L35.58 18.27L40.39 13.55C40.53 13.41 40.75 13.41 40.89 13.55L42.9 15.53C43.04 15.67 43.04 15.89 42.9 16.02L35.58 23.22L34.87 26.55L35.58 28.66C35.86 28.66 36.13 28.66 36.41 28.64C41.34 28.25 45.33 24.33 45.72 19.49C46.19 13.6 41.47 8.69 35.58 8.69Z" fill="#FFFFFF" fill-opacity="1.000000" fill-rule="nonzero"/>
	<path id="Vector" d="M33.73 25.04C33.59 25.17 33.37 25.17 33.23 25.04L28.26 20.16C28.12 20.02 28.12 19.8 28.26 19.67L30.28 17.69C30.41 17.55 30.64 17.55 30.78 17.69L33.23 20.09C33.37 20.23 33.59 20.23 33.73 20.09L35.58 18.27L35.58 8.69C35.31 8.69 35.04 8.7 34.76 8.72C29.83 9.1 25.84 13.02 25.45 17.87C24.97 23.75 29.69 28.66 35.58 28.66L35.58 26.55L35.58 23.22L33.73 25.04Z" fill="#FFFFFF" fill-opacity="1.000000" fill-rule="nonzero"/>
</svg>
