<svg width="51.000000" height="51.000000" viewBox="0 0 51 51" fill="none" xmlns="http://www.w3.org/2000/svg" xmlns:xlink="http://www.w3.org/1999/xlink">
	<desc>
			Created with Pixso.
	</desc>
	<defs>
		<clipPath id="clip1_50">
			<rect id="icon.svg (100) 1" width="17.000000" height="17.000000" transform="translate(17.000000 17.000000)" fill="white" fill-opacity="0"/>
		</clipPath>
	</defs>
	<circle id="Ellipse 1" cx="25.500000" cy="25.500000" r="19.500000" fill="#3E4357" fill-opacity="1.000000"/>
	<circle id="Ellipse 2" cx="25.500000" cy="25.500000" r="25.000000" stroke="#FFFFFF" stroke-opacity="0.200000" stroke-width="1.000000"/>
	<circle id="Ellipse 3" r="1.500000" transform="matrix(0.707107 0.707107 0.707107 -0.707107 9.94371 41.0564)" fill="#FBCD21" fill-opacity="1.000000"/>
	<circle id="Ellipse 4" r="1.500000" transform="matrix(0.707107 0.707107 0.707107 -0.707107 41.0564 9.9436)" fill="#FBCD21" fill-opacity="1.000000"/>
	<rect id="icon.svg (100) 1" width="17.000000" height="17.000000" transform="translate(17.000000 17.000000)" fill="#FFFFFF" fill-opacity="0"/>
	<g clip-path="url(#clip1_50)">
		<path id="Vector" d="M23.67 27.75L23.38 31.7C23.79 31.7 23.96 31.53 24.17 31.32L26.06 29.52L29.96 32.38C30.68 32.78 31.19 32.57 31.38 31.72L33.95 19.7L33.95 19.7C34.17 18.64 33.56 18.23 32.86 18.49L17.78 24.26C16.75 24.66 16.77 25.23 17.61 25.49L21.46 26.69L30.42 21.09C30.84 20.81 31.22 20.96 30.91 21.24L23.67 27.75Z" fill="#FBCD21" fill-opacity="1.000000" fill-rule="nonzero"/>
	</g>
</svg>
